<?xml version="1.0" encoding="UTF-8" standalone="yes"?>
<svg xmlns="http://www.w3.org/2000/svg" height="452" width="452">
<script type="text/ecmascript">
      <![CDATA[
        var shown = 1;
        function click() {
             var seq = document.getElementById("seq");
             if (shown==1) {
               seq.setAttribute("style", "visibility: hidden");
               shown = 0;
             } else {
               seq.setAttribute("style", "visibility: visible");
               shown = 1;
             }
         }
        ]]>
</script>
  <rect style="stroke: white; fill: white" height="452" x="0" y="0" width="452" onclick="click(evt)" />
  <g transform="scale(0.182375,0.182375) translate(1261.999878,278.156494)">
    <polyline style="stroke: black; fill: none; stroke-width: 1.5" id="outline" points="
      -268.741,85.146
      -275.498,71.754
      -282.254,58.361
      -289.011,44.969
      -295.767,31.577
      -302.523,18.185
      -309.280,4.792
      -296.380,12.447
      -281.382,12.667
      -268.262,5.395
      -260.502,-7.442
      -260.158,-22.438
      -267.323,-35.616
      -280.095,-43.482
      -295.087,-43.949
      -308.324,-36.893
      -316.295,-24.186
      -316.885,-9.196
      -324.451,-22.148
      -332.018,-35.099
      -339.584,-48.051
      -347.151,-61.003
      -354.717,-73.955
      -362.284,-86.906
      -351.698,-97.648
      -344.260,-110.754
      -340.470,-125.327
      -340.582,-140.373
      -344.581,-154.865
      -352.190,-167.819
      -362.884,-178.353
      -375.931,-185.755
      -390.438,-189.524
      -405.414,-189.409
      -419.839,-185.425
      -427.405,-198.377
      -423.614,-213.485
      -431.472,-226.513
      -445.899,-230.034
      -453.465,-242.985
      -450.800,-258.805
      -461.613,-270.656
      -477.611,-269.448
      -486.520,-256.106
      -481.507,-240.866
      -466.417,-235.419
      -458.851,-222.467
      -462.868,-208.171
      -455.380,-194.928
      -440.357,-190.811
      -432.790,-177.859
      -443.345,-167.250
      -450.799,-154.260
      -454.640,-139.772
      -454.600,-124.773
      -450.675,-110.284
      -443.128,-97.294
      -432.468,-86.693
      -419.416,-79.206
      -404.860,-75.351
      -389.791,-75.394
      -375.236,-79.340
      -367.669,-66.388
      -360.103,-53.437
      -352.536,-40.485
      -344.970,-27.533
      -337.403,-14.581
      -329.837,-1.629
      -322.672,11.549
      -315.916,24.941
      -309.159,38.333
      -302.403,51.725
      -295.646,65.118
      -288.890,78.510
      -282.134,91.902
      -260.822,113.042
      -239.224,110.552
      -236.111,125.226
      -232.999,139.899
      -229.886,154.573
      -226.773,169.246
      -223.661,183.920
      -220.729,198.630
      -217.978,213.376
      -215.227,228.122
      -212.476,242.867
      -209.725,257.613
      -211.569,264.696
      -206.912,272.440
      -204.070,287.169
      -201.229,301.897
      -198.387,316.626
      -203.573,330.588
      -193.362,342.673
      -190.520,357.401
      -199.053,369.555
      -196.382,384.532
      -183.575,393.400
      -180.734,408.129
      -177.892,422.857
      -175.051,437.585
      -172.209,452.314
      -169.368,467.042
      -166.526,481.771
      -163.685,496.499
      -160.843,511.227
      -158.002,525.956
      -155.160,540.684
      -160.346,554.647
      -150.135,566.731
      -147.293,581.460
      -144.452,596.188
      -141.610,610.917
      -138.769,625.645
      -135.927,640.373
      -133.086,655.102
      -130.244,669.830
      -127.403,684.559
      -124.561,699.287
      -121.720,714.015
      -118.878,728.744
      -116.037,743.472
      -113.195,758.201
      -118.382,772.163
      -108.170,784.248
      -105.329,798.976
      -102.487,813.704
      -99.646,828.433
      -104.832,842.396
      -94.620,854.480
      -91.779,869.208
      -88.937,883.937
      -86.096,898.665
      -83.254,913.394
      -89.850,929.700
      -77.554,943.466
      -74.803,958.212
      -76.646,965.295
      -71.990,973.039
      -69.148,987.768
      -77.681,999.922
      -75.009,1014.899
      -62.203,1023.767
      -59.361,1038.495
      -56.520,1053.224
      -53.678,1067.952
      -50.837,1082.680
      -47.995,1097.409
      -45.154,1112.137
      -42.312,1126.866
      -39.471,1141.594
      -36.629,1156.323
      -33.788,1171.051
      -38.974,1185.013
      -28.763,1197.098
      -25.921,1211.826
      -23.080,1226.555
      -20.238,1241.283
      -17.397,1256.012
      -14.555,1270.740
      -11.714,1285.469
      -8.872,1300.197
      -14.058,1314.159
      -3.847,1326.244
      -1.005,1340.972
      1.836,1355.701
      4.678,1370.429
      7.519,1385.157
      10.361,1399.886
      13.202,1414.614
      16.044,1429.343
      18.885,1444.071
      21.727,1458.800
      24.568,1473.528
      27.410,1488.256
      30.251,1502.985
      33.093,1517.713
      27.907,1531.676
      38.118,1543.760
      40.959,1558.489
      35.773,1572.451
      45.985,1584.536
      48.826,1599.264
      51.668,1613.993
      54.509,1628.721
      57.351,1643.449
      60.192,1658.178
      63.034,1672.906
      65.875,1687.635
      68.717,1702.363
      63.531,1716.326
      73.742,1728.410
      68.556,1742.373
      78.767,1754.457
      81.609,1769.186
      84.450,1783.914
      87.292,1798.642
      90.133,1813.371
      87.382,1828.116
      79.421,1840.830
      71.460,1853.543
      63.500,1866.256
      48.600,1863.363
      33.662,1866.051
      20.706,1873.957
      11.485,1886.012
      7.244,1900.585
      8.558,1915.706
      15.249,1929.329
      26.413,1939.613
      40.538,1945.165
      55.716,1945.236
      69.893,1939.816
      81.152,1929.638
      87.970,1916.078
      89.425,1900.970
      85.321,1886.357
      76.213,1874.217
      84.174,1861.504
      92.135,1848.791
      100.095,1836.077
      107.285,1838.214
      110.772,1852.804
      121.663,1842.489
      128.852,1844.626
      128.575,1859.623
      128.298,1874.621
      128.022,1889.618
      127.745,1904.616
      127.469,1919.613
      127.192,1934.611
      126.915,1949.608
      126.639,1964.605
      123.377,1973.033
      126.407,1979.696
      126.222,1994.695
      126.038,2009.694
      125.853,2024.693
      125.669,2039.691
      119.662,2051.112
      124.866,2061.439
      123.945,2076.411
      123.023,2091.382
      122.102,2106.354
      121.180,2121.325
      117.559,2129.605
      120.299,2136.392
      119.469,2151.369
      118.640,2166.346
      111.727,2181.827
      124.689,2192.755
      138.778,2183.325
      133.617,2167.176
      134.446,2152.198
      135.276,2137.222
      136.152,2122.247
      137.073,2107.275
      137.995,2092.304
      138.916,2077.332
      139.838,2062.361
      148.933,2074.289
      162.895,2079.772
      177.676,2077.219
      188.991,2067.372
      193.559,2053.084
      190.055,2038.499
      179.496,2027.845
      164.943,2024.212
      150.615,2028.652
      140.668,2039.876
      140.852,2024.877
      141.037,2009.878
      141.221,1994.879
      141.406,1979.880
      141.636,1964.882
      141.913,1949.885
      142.189,1934.887
      142.466,1919.890
      142.743,1904.892
      143.019,1889.895
      143.296,1874.897
      143.573,1859.900
      143.849,1844.902
      150.836,1842.177
      156.288,1856.151
      161.739,1870.125
      167.191,1884.100
      181.165,1878.648
      175.714,1864.674
      170.262,1850.700
      164.811,1836.725
      171.798,1834.000
      182.157,1844.848
      192.516,1855.696
      202.876,1866.544
      213.235,1877.393
      223.594,1888.241
      233.953,1899.089
      244.313,1909.938
      254.672,1920.786
      265.031,1931.634
      275.391,1942.482
      285.750,1953.331
      296.109,1964.179
      306.468,1975.027
      316.828,1985.876
      327.187,1996.724
      337.546,2007.572
      347.905,2018.421
      358.265,2029.269
      368.624,2040.117
      378.983,2050.965
      389.343,2061.814
      399.702,2072.662
      410.061,2083.510
      413.411,2099.563
      429.071,2104.431
      440.932,2093.105
      436.791,2077.238
      420.909,2073.151
      410.550,2062.303
      400.191,2051.454
      389.832,2040.606
      379.472,2029.758
      369.113,2018.910
      358.754,2008.061
      348.394,1997.213
      338.035,1986.365
      327.676,1975.516
      317.317,1964.668
      306.957,1953.820
      296.598,1942.971
      286.239,1932.123
      275.880,1921.275
      265.520,1910.427
      255.161,1899.578
      244.802,1888.730
      234.442,1877.882
      224.083,1867.033
      213.724,1856.185
      203.365,1845.337
      193.005,1834.489
      182.646,1823.640
      104.862,1810.529
      102.020,1795.801
      99.179,1781.073
      96.337,1766.344
      93.496,1751.616
      98.479,1736.600
      88.470,1725.569
      93.453,1710.553
      83.445,1699.521
      80.604,1684.793
      77.762,1670.065
      74.921,1655.336
      72.079,1640.608
      69.238,1625.880
      66.396,1611.151
      63.555,1596.423
      60.713,1581.694
      65.696,1566.678
      55.688,1555.647
      52.846,1540.919
      57.829,1525.903
      47.821,1514.872
      44.980,1500.143
      42.138,1485.415
      39.297,1470.686
      36.455,1455.958
      33.614,1441.230
      30.772,1426.501
      27.931,1411.773
      25.089,1397.044
      22.248,1382.316
      19.406,1367.588
      16.565,1352.859
      13.723,1338.131
      10.882,1323.402
      15.865,1308.386
      5.856,1297.355
      3.015,1282.627
      0.173,1267.898
      -2.668,1253.170
      -5.510,1238.442
      -8.351,1223.713
      -11.193,1208.985
      -14.034,1194.256
      -9.051,1179.240
      -19.059,1168.209
      -21.901,1153.481
      -24.743,1138.753
      -27.584,1124.024
      -30.426,1109.296
      -33.267,1094.567
      -36.109,1079.839
      -38.950,1065.111
      -41.792,1050.382
      -44.633,1035.654
      -47.475,1020.925
      -38.886,1007.930
      -41.978,993.034
      -54.420,984.926
      -57.261,970.198
      -60.058,955.461
      -62.808,940.715
      -56.194,929.715
      -58.725,917.539
      -68.526,910.552
      -71.367,895.824
      -74.209,881.095
      -77.050,866.367
      -79.892,851.639
      -74.909,836.623
      -84.917,825.591
      -87.759,810.863
      -90.600,796.135
      -93.442,781.406
      -88.459,766.390
      -98.467,755.359
      -101.308,740.631
      -104.150,725.902
      -106.991,711.174
      -109.833,696.445
      -112.674,681.717
      -115.516,666.989
      -118.357,652.260
      -121.199,637.532
      -124.041,622.803
      -126.882,608.075
      -129.724,593.347
      -132.565,578.618
      -135.407,563.890
      -130.424,548.874
      -140.432,537.843
      -143.273,523.114
      -146.115,508.386
      -148.956,493.657
      -151.798,478.929
      -154.639,464.201
      -157.481,449.472
      -160.322,434.744
      -163.164,420.016
      -166.005,405.287
      -168.847,390.559
      -160.259,377.563
      -163.350,362.667
      -175.792,354.560
      -178.634,339.831
      -173.651,324.815
      -183.659,313.784
      -186.500,299.056
      -189.342,284.327
      -192.183,269.599
      -194.980,254.862
      -197.730,240.116
      -200.481,225.371
      -203.232,210.625
      -205.983,195.880
      -204.486,192.030
      -204.259,188.272
      -205.127,184.979
      -206.816,182.434
      -208.987,180.807
      -212.100,166.134
      -215.213,151.460
      -218.325,136.787
      -221.438,122.113
      -224.551,107.440
      -217.363,120.605
      -205.568,129.873
      -191.077,133.744
      -176.232,131.592
      -163.436,123.764
      -154.760,111.528
      -151.607,96.863
      -154.488,82.142
      -162.936,69.748
      -175.585,61.684
      -190.387,59.258
      -204.948,62.860
      -216.912,71.908
      -224.343,84.941
      -220.960,70.327
      -217.578,55.713
      -214.195,41.100
      -210.812,26.486
      -200.162,14.786
      -204.830,0.642
      -201.447,-13.971
      -187.908,-22.125
      -184.182,-37.484
      -192.478,-50.935
      -207.875,-54.500
      -221.238,-46.062
      -224.639,-30.627
      -216.061,-17.354
      -219.443,-2.741
      -229.852,7.914
      -225.426,23.103
      -228.808,37.717
      -232.191,52.331
      -235.574,66.944
      -238.957,81.558
      -246.403,82.455
      -248.197,67.562
      -249.991,52.670
      -251.785,37.778
      -266.677,39.572
      -264.883,54.464
      -263.089,69.356
    " />
    <g style="stroke: black; stroke-width: 1; fill: none;" id="pairs">
      <line id="1,75" x1="-268.74139" y1="85.14575" x2="-282.13361" y2="91.90210" />
      <line id="2,74" x1="-275.49780" y1="71.75354" x2="-288.89001" y2="78.50989" />
      <line id="3,73" x1="-282.25421" y1="58.36133" x2="-295.64639" y2="65.11768" />
      <line id="4,72" x1="-289.01059" y1="44.96912" x2="-302.40280" y2="51.72546" />
      <line id="5,71" x1="-295.76700" y1="31.57690" x2="-309.15918" y2="38.33325" />
      <line id="6,70" x1="-302.52338" y1="18.18469" x2="-315.91559" y2="24.94116" />
      <line id="7,69" x1="-309.27979" y1="4.79248" x2="-322.67197" y2="11.54895" />
      <line id="18,68" x1="-316.88501" y1="-9.19580" x2="-329.83679" y2="-1.62927" />
      <line id="19,67" x1="-324.45145" y1="-22.14758" x2="-337.40323" y2="-14.58105" />
      <line id="20,66" x1="-332.01791" y1="-35.09937" x2="-344.96970" y2="-27.53284" />
      <line id="21,65" x1="-339.58435" y1="-48.05115" x2="-352.53616" y2="-40.48462" />
      <line id="22,64" x1="-347.15082" y1="-61.00293" x2="-360.10260" y2="-53.43652" />
      <line id="23,63" x1="-354.71729" y1="-73.95471" x2="-367.66907" y2="-66.38831" />
      <line id="24,62" x1="-362.28372" y1="-86.90649" x2="-375.23550" y2="-79.34009" />
      <line id="35,51" x1="-419.83850" y1="-185.42529" x2="-432.79028" y2="-177.85864" />
      <line id="36,50" x1="-427.40497" y1="-198.37695" x2="-440.35675" y2="-190.81055" />
      <line id="39,47" x1="-445.89886" y1="-230.03369" x2="-458.85065" y2="-222.46729" />
      <line id="40,46" x1="-453.46530" y1="-242.98535" x2="-466.41708" y2="-235.41895" />
      <line id="77,468" x1="-239.22412" y1="110.55225" x2="-224.55063" y2="107.43958" />
      <line id="78,467" x1="-236.11147" y1="125.22571" x2="-221.43797" y2="122.11304" />
      <line id="79,466" x1="-232.99881" y1="139.89929" x2="-218.32532" y2="136.78662" />
      <line id="80,465" x1="-229.88614" y1="154.57275" x2="-215.21265" y2="151.46008" />
      <line id="81,464" x1="-226.77348" y1="169.24622" x2="-212.09999" y2="166.13354" />
      <line id="82,463" x1="-223.66081" y1="183.91968" x2="-208.98734" y2="180.80701" />
      <line id="83,458" x1="-220.72881" y1="198.63037" x2="-205.98322" y2="195.87952" />
      <line id="84,457" x1="-217.97791" y1="213.37598" x2="-203.23232" y2="210.62500" />
      <line id="85,456" x1="-215.22699" y1="228.12158" x2="-200.48140" y2="225.37061" />
      <line id="86,455" x1="-212.47607" y1="242.86719" x2="-197.73048" y2="240.11621" />
      <line id="87,454" x1="-209.72517" y1="257.61279" x2="-194.97958" y2="254.86182" />
      <line id="89,453" x1="-206.91176" y1="272.44043" x2="-192.18335" y2="269.59888" />
      <line id="90,452" x1="-204.07024" y1="287.16882" x2="-189.34184" y2="284.32727" />
      <line id="91,451" x1="-201.22873" y1="301.89722" x2="-186.50032" y2="299.05566" />
      <line id="92,450" x1="-198.38722" y1="316.62561" x2="-183.65881" y2="313.78406" />
      <line id="94,448" x1="-193.36201" y1="342.67273" x2="-178.63361" y2="339.83118" />
      <line id="95,447" x1="-190.52049" y1="357.40112" x2="-175.79210" y2="354.55957" />
      <line id="98,444" x1="-183.57529" y1="393.40027" x2="-168.84688" y2="390.55872" />
      <line id="99,443" x1="-180.73378" y1="408.12866" x2="-166.00537" y2="405.28711" />
      <line id="100,442" x1="-177.89226" y1="422.85706" x2="-163.16386" y2="420.01550" />
      <line id="101,441" x1="-175.05075" y1="437.58545" x2="-160.32234" y2="434.74390" />
      <line id="102,440" x1="-172.20923" y1="452.31384" x2="-157.48083" y2="449.47229" />
      <line id="103,439" x1="-169.36772" y1="467.04224" x2="-154.63933" y2="464.20068" />
      <line id="104,438" x1="-166.52621" y1="481.77063" x2="-151.79781" y2="478.92908" />
      <line id="105,437" x1="-163.68469" y1="496.49902" x2="-148.95630" y2="493.65747" />
      <line id="106,436" x1="-160.84319" y1="511.22742" x2="-146.11478" y2="508.38599" />
      <line id="107,435" x1="-158.00168" y1="525.95581" x2="-143.27327" y2="523.11438" />
      <line id="108,434" x1="-155.16016" y1="540.68420" x2="-140.43176" y2="537.84277" />
      <line id="110,432" x1="-150.13495" y1="566.73132" x2="-135.40656" y2="563.88989" />
      <line id="111,431" x1="-147.29344" y1="581.45972" x2="-132.56505" y2="578.61829" />
      <line id="112,430" x1="-144.45193" y1="596.18823" x2="-129.72353" y2="593.34668" />
      <line id="113,429" x1="-141.61041" y1="610.91663" x2="-126.88202" y2="608.07507" />
      <line id="114,428" x1="-138.76891" y1="625.64502" x2="-124.04050" y2="622.80347" />
      <line id="115,427" x1="-135.92740" y1="640.37341" x2="-121.19899" y2="637.53186" />
      <line id="116,426" x1="-133.08588" y1="655.10181" x2="-118.35748" y2="652.26025" />
      <line id="117,425" x1="-130.24437" y1="669.83020" x2="-115.51597" y2="666.98865" />
      <line id="118,424" x1="-127.40285" y1="684.55859" x2="-112.67445" y2="681.71704" />
      <line id="119,423" x1="-124.56134" y1="699.28699" x2="-109.83294" y2="696.44543" />
      <line id="120,422" x1="-121.71983" y1="714.01538" x2="-106.99142" y2="711.17383" />
      <line id="121,421" x1="-118.87832" y1="728.74377" x2="-104.14992" y2="725.90222" />
      <line id="122,420" x1="-116.03680" y1="743.47217" x2="-101.30840" y2="740.63062" />
      <line id="123,419" x1="-113.19529" y1="758.20056" x2="-98.46689" y2="755.35913" />
      <line id="125,417" x1="-108.17009" y1="784.24768" x2="-93.44169" y2="781.40625" />
      <line id="126,416" x1="-105.32858" y1="798.97607" x2="-90.60017" y2="796.13464" />
      <line id="127,415" x1="-102.48706" y1="813.70447" x2="-87.75866" y2="810.86304" />
      <line id="128,414" x1="-99.64555" y1="828.43286" x2="-84.91714" y2="825.59143" />
      <line id="130,412" x1="-94.62035" y1="854.47998" x2="-79.89194" y2="851.63855" />
      <line id="131,411" x1="-91.77883" y1="869.20850" x2="-77.05043" y2="866.36694" />
      <line id="132,410" x1="-88.93732" y1="883.93689" x2="-74.20892" y2="881.09534" />
      <line id="133,409" x1="-86.09580" y1="898.66522" x2="-71.36740" y2="895.82373" />
      <line id="134,408" x1="-83.25430" y1="913.39362" x2="-68.52589" y2="910.55212" />
      <line id="136,405" x1="-77.55405" y1="943.46613" x2="-62.80846" y2="940.71521" />
      <line id="137,404" x1="-74.80315" y1="958.21173" x2="-60.05756" y2="955.46082" />
      <line id="139,403" x1="-71.98973" y1="973.03937" x2="-57.26133" y2="970.19788" />
      <line id="140,402" x1="-69.14822" y1="987.76776" x2="-54.41982" y2="984.92627" />
      <line id="143,399" x1="-62.20300" y1="1023.76685" x2="-47.47460" y2="1020.92535" />
      <line id="144,398" x1="-59.36149" y1="1038.49536" x2="-44.63309" y2="1035.65381" />
      <line id="145,397" x1="-56.51998" y1="1053.22363" x2="-41.79158" y2="1050.38208" />
      <line id="146,396" x1="-53.67847" y1="1067.95215" x2="-38.95007" y2="1065.11060" />
      <line id="147,395" x1="-50.83696" y1="1082.68042" x2="-36.10855" y2="1079.83899" />
      <line id="148,394" x1="-47.99544" y1="1097.40894" x2="-33.26704" y2="1094.56738" />
      <line id="149,393" x1="-45.15393" y1="1112.13721" x2="-30.42553" y2="1109.29578" />
      <line id="150,392" x1="-42.31242" y1="1126.86572" x2="-27.58401" y2="1124.02417" />
      <line id="151,391" x1="-39.47091" y1="1141.59399" x2="-24.74250" y2="1138.75256" />
      <line id="152,390" x1="-36.62939" y1="1156.32251" x2="-21.90099" y2="1153.48096" />
      <line id="153,389" x1="-33.78788" y1="1171.05090" x2="-19.05948" y2="1168.20935" />
      <line id="155,387" x1="-28.76267" y1="1197.09802" x2="-14.03427" y2="1194.25647" />
      <line id="156,386" x1="-25.92116" y1="1211.82642" x2="-11.19276" y2="1208.98486" />
      <line id="157,385" x1="-23.07965" y1="1226.55481" x2="-8.35125" y2="1223.71338" />
      <line id="158,384" x1="-20.23814" y1="1241.28320" x2="-5.50973" y2="1238.44165" />
      <line id="159,383" x1="-17.39662" y1="1256.01160" x2="-2.66822" y2="1253.17017" />
      <line id="160,382" x1="-14.55511" y1="1270.73999" x2="0.17329" y2="1267.89844" />
      <line id="161,381" x1="-11.71360" y1="1285.46851" x2="3.01480" y2="1282.62695" />
      <line id="162,380" x1="-8.87209" y1="1300.19678" x2="5.85632" y2="1297.35522" />
      <line id="164,378" x1="-3.84688" y1="1326.24390" x2="10.88152" y2="1323.40234" />
      <line id="165,377" x1="-1.00537" y1="1340.97241" x2="13.72303" y2="1338.13086" />
      <line id="166,376" x1="1.83614" y1="1355.70068" x2="16.56455" y2="1352.85925" />
      <line id="167,375" x1="4.67766" y1="1370.42920" x2="19.40606" y2="1367.58765" />
      <line id="168,374" x1="7.51917" y1="1385.15747" x2="22.24757" y2="1382.31604" />
      <line id="169,373" x1="10.36068" y1="1399.88599" x2="25.08908" y2="1397.04443" />
      <line id="170,372" x1="13.20220" y1="1414.61438" x2="27.93060" y2="1411.77283" />
      <line id="171,371" x1="16.04371" y1="1429.34277" x2="30.77211" y2="1426.50122" />
      <line id="172,370" x1="18.88522" y1="1444.07117" x2="33.61362" y2="1441.22961" />
      <line id="173,369" x1="21.72673" y1="1458.79956" x2="36.45514" y2="1455.95801" />
      <line id="174,368" x1="24.56824" y1="1473.52795" x2="39.29665" y2="1470.68640" />
      <line id="175,367" x1="27.40976" y1="1488.25635" x2="42.13816" y2="1485.41479" />
      <line id="176,366" x1="30.25127" y1="1502.98474" x2="44.97967" y2="1500.14331" />
      <line id="177,365" x1="33.09278" y1="1517.71313" x2="47.82119" y2="1514.87158" />
      <line id="179,363" x1="38.11799" y1="1543.76025" x2="52.84639" y2="1540.91870" />
      <line id="180,362" x1="40.95950" y1="1558.48865" x2="55.68790" y2="1555.64722" />
      <line id="182,360" x1="45.98470" y1="1584.53577" x2="60.71311" y2="1581.69434" />
      <line id="183,359" x1="48.82622" y1="1599.26416" x2="63.55462" y2="1596.42273" />
      <line id="184,358" x1="51.66773" y1="1613.99268" x2="66.39613" y2="1611.15112" />
      <line id="185,357" x1="54.50924" y1="1628.72095" x2="69.23764" y2="1625.87952" />
      <line id="186,356" x1="57.35075" y1="1643.44946" x2="72.07915" y2="1640.60791" />
      <line id="187,355" x1="60.19227" y1="1658.17773" x2="74.92067" y2="1655.33630" />
      <line id="188,354" x1="63.03378" y1="1672.90625" x2="77.76218" y2="1670.06470" />
      <line id="189,353" x1="65.87529" y1="1687.63464" x2="80.60369" y2="1684.79309" />
      <line id="190,352" x1="68.71680" y1="1702.36304" x2="83.44521" y2="1699.52148" />
      <line id="192,350" x1="73.74201" y1="1728.41016" x2="88.47041" y2="1725.56860" />
      <line id="194,348" x1="78.76721" y1="1754.45728" x2="93.49561" y2="1751.61572" />
      <line id="195,347" x1="81.60873" y1="1769.18567" x2="96.33713" y2="1766.34412" />
      <line id="196,346" x1="84.45024" y1="1783.91406" x2="99.17864" y2="1781.07251" />
      <line id="197,345" x1="87.29176" y1="1798.64246" x2="102.02016" y2="1795.80090" />
      <line id="198,344" x1="90.13326" y1="1813.37085" x2="104.86166" y2="1810.52930" />
      <line id="199,221" x1="87.38235" y1="1828.11646" x2="100.09547" y2="1836.07739" />
      <line id="200,220" x1="79.42140" y1="1840.82959" x2="92.13452" y2="1848.79053" />
      <line id="201,219" x1="71.46046" y1="1853.54272" x2="84.17357" y2="1861.50366" />
      <line id="202,218" x1="63.49950" y1="1866.25586" x2="76.21262" y2="1874.21680" />
      <line id="225,283" x1="128.85176" y1="1844.62585" x2="143.84920" y2="1844.90247" />
      <line id="226,282" x1="128.57512" y1="1859.62329" x2="143.57256" y2="1859.89990" />
      <line id="227,281" x1="128.29848" y1="1874.62073" x2="143.29591" y2="1874.89746" />
      <line id="228,280" x1="128.02184" y1="1889.61816" x2="143.01927" y2="1889.89490" />
      <line id="229,279" x1="127.74519" y1="1904.61560" x2="142.74263" y2="1904.89233" />
      <line id="230,278" x1="127.46854" y1="1919.61316" x2="142.46600" y2="1919.88977" />
      <line id="231,277" x1="127.19191" y1="1934.61060" x2="142.18936" y2="1934.88721" />
      <line id="232,276" x1="126.91527" y1="1949.60803" x2="141.91272" y2="1949.88464" />
      <line id="233,275" x1="126.63863" y1="1964.60547" x2="141.63608" y2="1964.88208" />
      <line id="235,274" x1="126.40667" y1="1979.69592" x2="141.40553" y2="1979.88037" />
      <line id="236,273" x1="126.22224" y1="1994.69470" x2="141.22110" y2="1994.87915" />
      <line id="237,272" x1="126.03780" y1="2009.69360" x2="141.03667" y2="2009.87805" />
      <line id="238,271" x1="125.85337" y1="2024.69250" x2="140.85223" y2="2024.87695" />
      <line id="239,270" x1="125.66894" y1="2039.69141" x2="140.66780" y2="2039.87573" />
      <line id="241,260" x1="124.86636" y1="2061.43896" x2="139.83801" y2="2062.36060" />
      <line id="242,259" x1="123.94475" y1="2076.41064" x2="138.91641" y2="2077.33203" />
      <line id="243,258" x1="123.02314" y1="2091.38232" x2="137.99480" y2="2092.30371" />
      <line id="244,257" x1="122.10153" y1="2106.35376" x2="137.07320" y2="2107.27539" />
      <line id="245,256" x1="121.17992" y1="2121.32544" x2="136.15158" y2="2122.24707" />
      <line id="247,255" x1="120.29896" y1="2136.39209" x2="135.27600" y2="2137.22168" />
      <line id="248,254" x1="119.46941" y1="2151.36914" x2="134.44646" y2="2152.19849" />
      <line id="249,253" x1="118.63986" y1="2166.34619" x2="133.61691" y2="2167.17554" />
      <line id="292,343" x1="171.79782" y1="1833.99951" x2="182.64612" y2="1823.64026" />
      <line id="293,342" x1="182.15709" y1="1844.84778" x2="193.00539" y2="1834.48853" />
      <line id="294,341" x1="192.51636" y1="1855.69617" x2="203.36465" y2="1845.33679" />
      <line id="295,340" x1="202.87564" y1="1866.54443" x2="213.72392" y2="1856.18518" />
      <line id="296,339" x1="213.23491" y1="1877.39270" x2="224.08321" y2="1867.03345" />
      <line id="297,338" x1="223.59418" y1="1888.24097" x2="234.44247" y2="1877.88171" />
      <line id="298,337" x1="233.95345" y1="1899.08923" x2="244.80174" y2="1888.72998" />
      <line id="299,336" x1="244.31273" y1="1909.93762" x2="255.16101" y2="1899.57837" />
      <line id="300,335" x1="254.67200" y1="1920.78589" x2="265.52029" y2="1910.42664" />
      <line id="301,334" x1="265.03128" y1="1931.63416" x2="275.87955" y2="1921.27490" />
      <line id="302,333" x1="275.39053" y1="1942.48242" x2="286.23883" y2="1932.12317" />
      <line id="303,332" x1="285.74982" y1="1953.33081" x2="296.59811" y2="1942.97144" />
      <line id="304,331" x1="296.10907" y1="1964.17908" x2="306.95737" y2="1953.81982" />
      <line id="305,330" x1="306.46835" y1="1975.02734" x2="317.31665" y2="1964.66809" />
      <line id="306,329" x1="316.82764" y1="1985.87561" x2="327.67593" y2="1975.51636" />
      <line id="307,328" x1="327.18689" y1="1996.72388" x2="338.03519" y2="1986.36462" />
      <line id="308,327" x1="337.54617" y1="2007.57227" x2="348.39447" y2="1997.21301" />
      <line id="309,326" x1="347.90546" y1="2018.42053" x2="358.75375" y2="2008.06128" />
      <line id="310,325" x1="358.26471" y1="2029.26880" x2="369.11301" y2="2018.90955" />
      <line id="311,324" x1="368.62399" y1="2040.11707" x2="379.47229" y2="2029.75781" />
      <line id="312,323" x1="378.98328" y1="2050.96533" x2="389.83154" y2="2040.60608" />
      <line id="313,322" x1="389.34253" y1="2061.81372" x2="400.19083" y2="2051.45435" />
      <line id="314,321" x1="399.70181" y1="2072.66211" x2="410.55011" y2="2062.30273" />
      <line id="315,320" x1="410.06107" y1="2083.51025" x2="420.90936" y2="2073.15112" />
      <line id="482,503" x1="-224.34314" y1="84.94055" x2="-238.95674" y2="81.55786" />
      <line id="483,502" x1="-220.96039" y1="70.32690" x2="-235.57399" y2="66.94421" />
      <line id="484,501" x1="-217.57764" y1="55.71338" x2="-232.19124" y2="52.33057" />
      <line id="485,500" x1="-214.19489" y1="41.09973" x2="-228.80849" y2="37.71704" />
      <line id="486,499" x1="-210.81213" y1="26.48621" x2="-225.42574" y2="23.10339" />
      <line id="488,497" x1="-204.82976" y1="0.64209" x2="-219.44334" y2="-2.74060" />
      <line id="489,496" x1="-201.44701" y1="-13.97144" x2="-216.06059" y2="-17.35425" />
    </g>
    <g style="font-family: SansSerif" transform="translate(-4.6, 4)" id="seq">
      <text x="-268.741" y="85.146">A</text>
      <text x="-275.498" y="71.754">G</text>
      <text x="-282.254" y="58.361">A</text>
      <text x="-289.011" y="44.969">G</text>
      <text x="-295.767" y="31.577">A</text>
      <text x="-302.523" y="18.185">C</text>
      <text x="-309.280" y="4.792">A</text>
      <text x="-296.380" y="12.447">A</text>
      <text x="-281.382" y="12.667">G</text>
      <text x="-268.262" y="5.395">A</text>
      <text x="-260.502" y="-7.442">C</text>
      <text x="-260.158" y="-22.438">C</text>
      <text x="-267.323" y="-35.616">U</text>
      <text x="-280.095" y="-43.482">U</text>
      <text x="-295.087" y="-43.949">G</text>
      <text x="-308.324" y="-36.893">G</text>
      <text x="-316.295" y="-24.186">U</text>
      <text x="-316.885" y="-9.196">A</text>
      <text x="-324.451" y="-22.148">U</text>
      <text x="-332.018" y="-35.099">U</text>
      <text x="-339.584" y="-48.051">G</text>
      <text x="-347.151" y="-61.003">U</text>
      <text x="-354.717" y="-73.955">A</text>
      <text x="-362.284" y="-86.906">A</text>
      <text x="-351.698" y="-97.648">U</text>
      <text x="-344.260" y="-110.754">U</text>
      <text x="-340.470" y="-125.327">A</text>
      <text x="-340.582" y="-140.373">U</text>
      <text x="-344.581" y="-154.865">U</text>
      <text x="-352.190" y="-167.819">U</text>
      <text x="-362.884" y="-178.353">U</text>
      <text x="-375.931" y="-185.755">U</text>
      <text x="-390.438" y="-189.524">C</text>
      <text x="-405.414" y="-189.409">U</text>
      <text x="-419.839" y="-185.425">G</text>
      <text x="-427.405" y="-198.377">A</text>
      <text x="-423.614" y="-213.485">U</text>
      <text x="-431.472" y="-226.513">U</text>
      <text x="-445.899" y="-230.034">C</text>
      <text x="-453.465" y="-242.985">A</text>
      <text x="-450.800" y="-258.805">U</text>
      <text x="-461.613" y="-270.656">C</text>
      <text x="-477.611" y="-269.448">A</text>
      <text x="-486.520" y="-256.106">U</text>
      <text x="-481.507" y="-240.866">U</text>
      <text x="-466.417" y="-235.419">U</text>
      <text x="-458.851" y="-222.467">G</text>
      <text x="-462.868" y="-208.171">C</text>
      <text x="-455.380" y="-194.928">U</text>
      <text x="-440.357" y="-190.811">U</text>
      <text x="-432.790" y="-177.859">U</text>
      <text x="-443.345" y="-167.250">U</text>
      <text x="-450.799" y="-154.260">C</text>
      <text x="-454.640" y="-139.772">A</text>
      <text x="-454.600" y="-124.773">A</text>
      <text x="-450.675" y="-110.284">U</text>
      <text x="-443.128" y="-97.294">U</text>
      <text x="-432.468" y="-86.693">U</text>
      <text x="-419.416" y="-79.206">C</text>
      <text x="-404.860" y="-75.351">A</text>
      <text x="-389.791" y="-75.394">C</text>
      <text x="-375.236" y="-79.340">U</text>
      <text x="-367.669" y="-66.388">U</text>
      <text x="-360.103" y="-53.437">A</text>
      <text x="-352.536" y="-40.485">C</text>
      <text x="-344.970" y="-27.533">A</text>
      <text x="-337.403" y="-14.581">G</text>
      <text x="-329.837" y="-1.629">U</text>
      <text x="-322.672" y="11.549">U</text>
      <text x="-315.916" y="24.941">G</text>
      <text x="-309.159" y="38.333">U</text>
      <text x="-302.403" y="51.725">U</text>
      <text x="-295.646" y="65.118">U</text>
      <text x="-288.890" y="78.510">C</text>
      <text x="-282.134" y="91.902">U</text>
      <text x="-260.822" y="113.042">U</text>
      <text x="-239.224" y="110.552">U</text>
      <text x="-236.111" y="125.226">U</text>
      <text x="-232.999" y="139.899">U</text>
      <text x="-229.886" y="154.573">U</text>
      <text x="-226.773" y="169.246">U</text>
      <text x="-223.661" y="183.920">U</text>
      <text x="-220.729" y="198.630">A</text>
      <text x="-217.978" y="213.376">G</text>
      <text x="-215.227" y="228.122">A</text>
      <text x="-212.476" y="242.867">U</text>
      <text x="-209.725" y="257.613">G</text>
      <text x="-211.569" y="264.696">A</text>
      <text x="-206.912" y="272.440">G</text>
      <text x="-204.070" y="287.169">G</text>
      <text x="-201.229" y="301.897">G</text>
      <text x="-198.387" y="316.626">U</text>
      <text x="-203.573" y="330.588">C</text>
      <text x="-193.362" y="342.673">U</text>
      <text x="-190.520" y="357.401">C</text>
      <text x="-199.053" y="369.555">C</text>
      <text x="-196.382" y="384.532">C</text>
      <text x="-183.575" y="393.400">U</text>
      <text x="-180.734" y="408.129">A</text>
      <text x="-177.892" y="422.857">U</text>
      <text x="-175.051" y="437.585">G</text>
      <text x="-172.209" y="452.314">U</text>
      <text x="-169.368" y="467.042">U</text>
      <text x="-166.526" y="481.771">G</text>
      <text x="-163.685" y="496.499">U</text>
      <text x="-160.843" y="511.227">C</text>
      <text x="-158.002" y="525.956">C</text>
      <text x="-155.160" y="540.684">A</text>
      <text x="-160.346" y="554.647">A</text>
      <text x="-150.135" y="566.731">G</text>
      <text x="-147.293" y="581.460">C</text>
      <text x="-144.452" y="596.188">U</text>
      <text x="-141.610" y="610.917">G</text>
      <text x="-138.769" y="625.645">G</text>
      <text x="-135.927" y="640.373">U</text>
      <text x="-133.086" y="655.102">C</text>
      <text x="-130.244" y="669.830">U</text>
      <text x="-127.403" y="684.559">C</text>
      <text x="-124.561" y="699.287">A</text>
      <text x="-121.720" y="714.015">G</text>
      <text x="-118.878" y="728.744">A</text>
      <text x="-116.037" y="743.472">C</text>
      <text x="-113.195" y="758.201">U</text>
      <text x="-118.382" y="772.163">C</text>
      <text x="-108.170" y="784.248">C</text>
      <text x="-105.329" y="798.976">U</text>
      <text x="-102.487" y="813.704">G</text>
      <text x="-99.646" y="828.433">G</text>
      <text x="-104.832" y="842.396">C</text>
      <text x="-94.620" y="854.480">C</text>
      <text x="-91.779" y="869.208">U</text>
      <text x="-88.937" y="883.937">C</text>
      <text x="-86.096" y="898.665">A</text>
      <text x="-83.254" y="913.394">A</text>
      <text x="-89.850" y="929.700">A</text>
      <text x="-77.554" y="943.466">G</text>
      <text x="-74.803" y="958.212">G</text>
      <text x="-76.646" y="965.295">A</text>
      <text x="-71.990" y="973.039">U</text>
      <text x="-69.148" y="987.768">C</text>
      <text x="-77.681" y="999.922">C</text>
      <text x="-75.009" y="1014.899">U</text>
      <text x="-62.203" y="1023.767">C</text>
      <text x="-59.361" y="1038.495">C</text>
      <text x="-56.520" y="1053.224">U</text>
      <text x="-53.678" y="1067.952">G</text>
      <text x="-50.837" y="1082.680">C</text>
      <text x="-47.995" y="1097.409">C</text>
      <text x="-45.154" y="1112.137">U</text>
      <text x="-42.312" y="1126.866">C</text>
      <text x="-39.471" y="1141.594">A</text>
      <text x="-36.629" y="1156.323">G</text>
      <text x="-33.788" y="1171.051">C</text>
      <text x="-38.974" y="1185.013">A</text>
      <text x="-28.763" y="1197.098">U</text>
      <text x="-25.921" y="1211.826">C</text>
      <text x="-23.080" y="1226.555">C</text>
      <text x="-20.238" y="1241.283">C</text>
      <text x="-17.397" y="1256.012">A</text>
      <text x="-14.555" y="1270.740">A</text>
      <text x="-11.714" y="1285.469">A</text>
      <text x="-8.872" y="1300.197">G</text>
      <text x="-14.058" y="1314.159">C</text>
      <text x="-3.847" y="1326.244">G</text>
      <text x="-1.005" y="1340.972">C</text>
      <text x="1.836" y="1355.701">U</text>
      <text x="4.678" y="1370.429">G</text>
      <text x="7.519" y="1385.157">G</text>
      <text x="10.361" y="1399.886">G</text>
      <text x="13.202" y="1414.614">A</text>
      <text x="16.044" y="1429.343">U</text>
      <text x="18.885" y="1444.071">U</text>
      <text x="21.727" y="1458.800">G</text>
      <text x="24.568" y="1473.528">C</text>
      <text x="27.410" y="1488.256">A</text>
      <text x="30.251" y="1502.985">G</text>
      <text x="33.093" y="1517.713">G</text>
      <text x="27.907" y="1531.676">A</text>
      <text x="38.118" y="1543.760">G</text>
      <text x="40.959" y="1558.489">U</text>
      <text x="35.773" y="1572.451">A</text>
      <text x="45.985" y="1584.536">A</text>
      <text x="48.826" y="1599.264">G</text>
      <text x="51.668" y="1613.993">C</text>
      <text x="54.509" y="1628.721">C</text>
      <text x="57.351" y="1643.449">A</text>
      <text x="60.192" y="1658.178">C</text>
      <text x="63.034" y="1672.906">U</text>
      <text x="65.875" y="1687.635">G</text>
      <text x="68.717" y="1702.363">U</text>
      <text x="63.531" y="1716.326">A</text>
      <text x="73.742" y="1728.410">C</text>
      <text x="68.556" y="1742.373">C</text>
      <text x="78.767" y="1754.457">C</text>
      <text x="81.609" y="1769.186">A</text>
      <text x="84.450" y="1783.914">G</text>
      <text x="87.292" y="1798.642">C</text>
      <text x="90.133" y="1813.371">C</text>
      <text x="87.382" y="1828.116">U</text>
      <text x="79.421" y="1840.830">C</text>
      <text x="71.460" y="1853.543">A</text>
      <text x="63.500" y="1866.256">A</text>
      <text x="48.600" y="1863.363">U</text>
      <text x="33.662" y="1866.051">U</text>
      <text x="20.706" y="1873.957">U</text>
      <text x="11.485" y="1886.012">C</text>
      <text x="7.244" y="1900.585">A</text>
      <text x="8.558" y="1915.706">U</text>
      <text x="15.249" y="1929.329">U</text>
      <text x="26.413" y="1939.613">U</text>
      <text x="40.538" y="1945.165">A</text>
      <text x="55.716" y="1945.236">U</text>
      <text x="69.893" y="1939.816">A</text>
      <text x="81.152" y="1929.638">G</text>
      <text x="87.970" y="1916.078">U</text>
      <text x="89.425" y="1900.970">U</text>
      <text x="85.321" y="1886.357">U</text>
      <text x="76.213" y="1874.217">U</text>
      <text x="84.174" y="1861.504">U</text>
      <text x="92.135" y="1848.791">G</text>
      <text x="100.095" y="1836.077">A</text>
      <text x="107.285" y="1838.214">C</text>
      <text x="110.772" y="1852.804">A</text>
      <text x="121.663" y="1842.489">A</text>
      <text x="128.852" y="1844.626">G</text>
      <text x="128.575" y="1859.623">U</text>
      <text x="128.298" y="1874.621">A</text>
      <text x="128.022" y="1889.618">A</text>
      <text x="127.745" y="1904.616">A</text>
      <text x="127.469" y="1919.613">A</text>
      <text x="127.192" y="1934.611">A</text>
      <text x="126.915" y="1949.608">G</text>
      <text x="126.639" y="1964.605">U</text>
      <text x="123.377" y="1973.033">U</text>
      <text x="126.407" y="1979.696">G</text>
      <text x="126.222" y="1994.695">U</text>
      <text x="126.038" y="2009.694">U</text>
      <text x="125.853" y="2024.693">U</text>
      <text x="125.669" y="2039.691">A</text>
      <text x="119.662" y="2051.112">A</text>
      <text x="124.866" y="2061.439">C</text>
      <text x="123.945" y="2076.411">A</text>
      <text x="123.023" y="2091.382">A</text>
      <text x="122.102" y="2106.354">U</text>
      <text x="121.180" y="2121.325">G</text>
      <text x="117.559" y="2129.605">U</text>
      <text x="120.299" y="2136.392">C</text>
      <text x="119.469" y="2151.369">U</text>
      <text x="118.640" y="2166.346">C</text>
      <text x="111.727" y="2181.827">A</text>
      <text x="124.689" y="2192.755">U</text>
      <text x="138.778" y="2183.325">A</text>
      <text x="133.617" y="2167.176">G</text>
      <text x="134.446" y="2152.198">A</text>
      <text x="135.276" y="2137.222">G</text>
      <text x="136.152" y="2122.247">C</text>
      <text x="137.073" y="2107.275">A</text>
      <text x="137.995" y="2092.304">U</text>
      <text x="138.916" y="2077.332">U</text>
      <text x="139.838" y="2062.361">G</text>
      <text x="148.933" y="2074.289">A</text>
      <text x="162.895" y="2079.772">U</text>
      <text x="177.676" y="2077.219">A</text>
      <text x="188.991" y="2067.372">A</text>
      <text x="193.559" y="2053.084">U</text>
      <text x="190.055" y="2038.499">C</text>
      <text x="179.496" y="2027.845">U</text>
      <text x="164.943" y="2024.212">C</text>
      <text x="150.615" y="2028.652">A</text>
      <text x="140.668" y="2039.876">U</text>
      <text x="140.852" y="2024.877">A</text>
      <text x="141.037" y="2009.878">A</text>
      <text x="141.221" y="1994.879">A</text>
      <text x="141.406" y="1979.880">U</text>
      <text x="141.636" y="1964.882">A</text>
      <text x="141.913" y="1949.885">U</text>
      <text x="142.189" y="1934.887">U</text>
      <text x="142.466" y="1919.890">U</text>
      <text x="142.743" y="1904.892">U</text>
      <text x="143.019" y="1889.895">U</text>
      <text x="143.296" y="1874.897">U</text>
      <text x="143.573" y="1859.900">A</text>
      <text x="143.849" y="1844.902">C</text>
      <text x="150.836" y="1842.177">C</text>
      <text x="156.288" y="1856.151">U</text>
      <text x="161.739" y="1870.125">A</text>
      <text x="167.191" y="1884.100">A</text>
      <text x="181.165" y="1878.648">C</text>
      <text x="175.714" y="1864.674">U</text>
      <text x="170.262" y="1850.700">A</text>
      <text x="164.811" y="1836.725">C</text>
      <text x="171.798" y="1834.000">A</text>
      <text x="182.157" y="1844.848">U</text>
      <text x="192.516" y="1855.696">A</text>
      <text x="202.876" y="1866.544">U</text>
      <text x="213.235" y="1877.393">A</text>
      <text x="223.594" y="1888.241">U</text>
      <text x="233.953" y="1899.089">A</text>
      <text x="244.313" y="1909.938">U</text>
      <text x="254.672" y="1920.786">A</text>
      <text x="265.031" y="1931.634">U</text>
      <text x="275.391" y="1942.482">A</text>
      <text x="285.750" y="1953.331">U</text>
      <text x="296.109" y="1964.179">A</text>
      <text x="306.468" y="1975.027">U</text>
      <text x="316.828" y="1985.876">A</text>
      <text x="327.187" y="1996.724">U</text>
      <text x="337.546" y="2007.572">A</text>
      <text x="347.905" y="2018.421">U</text>
      <text x="358.265" y="2029.269">A</text>
      <text x="368.624" y="2040.117">U</text>
      <text x="378.983" y="2050.965">A</text>
      <text x="389.343" y="2061.814">U</text>
      <text x="399.702" y="2072.662">A</text>
      <text x="410.061" y="2083.510">U</text>
      <text x="413.411" y="2099.563">A</text>
      <text x="429.071" y="2104.431">U</text>
      <text x="440.932" y="2093.105">A</text>
      <text x="436.791" y="2077.238">U</text>
      <text x="420.909" y="2073.151">A</text>
      <text x="410.550" y="2062.303">U</text>
      <text x="400.191" y="2051.454">A</text>
      <text x="389.832" y="2040.606">U</text>
      <text x="379.472" y="2029.758">A</text>
      <text x="369.113" y="2018.910">U</text>
      <text x="358.754" y="2008.061">A</text>
      <text x="348.394" y="1997.213">U</text>
      <text x="338.035" y="1986.365">A</text>
      <text x="327.676" y="1975.516">U</text>
      <text x="317.317" y="1964.668">A</text>
      <text x="306.957" y="1953.820">U</text>
      <text x="296.598" y="1942.971">A</text>
      <text x="286.239" y="1932.123">U</text>
      <text x="275.880" y="1921.275">A</text>
      <text x="265.520" y="1910.427">U</text>
      <text x="255.161" y="1899.578">A</text>
      <text x="244.802" y="1888.730">U</text>
      <text x="234.442" y="1877.882">A</text>
      <text x="224.083" y="1867.033">U</text>
      <text x="213.724" y="1856.185">A</text>
      <text x="203.365" y="1845.337">U</text>
      <text x="193.005" y="1834.489">A</text>
      <text x="182.646" y="1823.640">U</text>
      <text x="104.862" y="1810.529">G</text>
      <text x="102.020" y="1795.801">G</text>
      <text x="99.179" y="1781.073">C</text>
      <text x="96.337" y="1766.344">U</text>
      <text x="93.496" y="1751.616">G</text>
      <text x="98.479" y="1736.600">A</text>
      <text x="88.470" y="1725.569">G</text>
      <text x="93.453" y="1710.553">C</text>
      <text x="83.445" y="1699.521">A</text>
      <text x="80.604" y="1684.793">C</text>
      <text x="77.762" y="1670.065">A</text>
      <text x="74.921" y="1655.336">G</text>
      <text x="72.079" y="1640.608">U</text>
      <text x="69.238" y="1625.880">G</text>
      <text x="66.396" y="1611.151">G</text>
      <text x="63.555" y="1596.423">C</text>
      <text x="60.713" y="1581.694">U</text>
      <text x="65.696" y="1566.678">C</text>
      <text x="55.688" y="1555.647">A</text>
      <text x="52.846" y="1540.919">C</text>
      <text x="57.829" y="1525.903">A</text>
      <text x="47.821" y="1514.872">C</text>
      <text x="44.980" y="1500.143">C</text>
      <text x="42.138" y="1485.415">U</text>
      <text x="39.297" y="1470.686">G</text>
      <text x="36.455" y="1455.958">U</text>
      <text x="33.614" y="1441.230">G</text>
      <text x="30.772" y="1426.501">G</text>
      <text x="27.931" y="1411.773">U</text>
      <text x="25.089" y="1397.044">C</text>
      <text x="22.248" y="1382.316">C</text>
      <text x="19.406" y="1367.588">C</text>
      <text x="16.565" y="1352.859">A</text>
      <text x="13.723" y="1338.131">G</text>
      <text x="10.882" y="1323.402">C</text>
      <text x="15.865" y="1308.386">A</text>
      <text x="5.856" y="1297.355">C</text>
      <text x="3.015" y="1282.627">U</text>
      <text x="0.173" y="1267.898">U</text>
      <text x="-2.668" y="1253.170">U</text>
      <text x="-5.510" y="1238.442">G</text>
      <text x="-8.351" y="1223.713">G</text>
      <text x="-11.193" y="1208.985">G</text>
      <text x="-14.034" y="1194.256">A</text>
      <text x="-9.051" y="1179.240">G</text>
      <text x="-19.059" y="1168.209">G</text>
      <text x="-21.901" y="1153.481">C</text>
      <text x="-24.743" y="1138.753">U</text>
      <text x="-27.584" y="1124.024">G</text>
      <text x="-30.426" y="1109.296">A</text>
      <text x="-33.267" y="1094.567">G</text>
      <text x="-36.109" y="1079.839">G</text>
      <text x="-38.950" y="1065.111">C</text>
      <text x="-41.792" y="1050.382">A</text>
      <text x="-44.633" y="1035.654">G</text>
      <text x="-47.475" y="1020.925">G</text>
      <text x="-38.886" y="1007.930">C</text>
      <text x="-41.978" y="993.034">A</text>
      <text x="-54.420" y="984.926">G</text>
      <text x="-57.261" y="970.198">A</text>
      <text x="-60.058" y="955.461">C</text>
      <text x="-62.808" y="940.715">U</text>
      <text x="-56.194" y="929.715">G</text>
      <text x="-58.725" y="917.539">C</text>
      <text x="-68.526" y="910.552">U</text>
      <text x="-71.367" y="895.824">U</text>
      <text x="-74.209" y="881.095">G</text>
      <text x="-77.050" y="866.367">A</text>
      <text x="-79.892" y="851.639">G</text>
      <text x="-74.909" y="836.623">C</text>
      <text x="-84.917" y="825.591">U</text>
      <text x="-87.759" y="810.863">C</text>
      <text x="-90.600" y="796.135">A</text>
      <text x="-93.442" y="781.406">G</text>
      <text x="-88.459" y="766.390">C</text>
      <text x="-98.467" y="755.359">A</text>
      <text x="-101.308" y="740.631">G</text>
      <text x="-104.150" y="725.902">U</text>
      <text x="-106.991" y="711.174">U</text>
      <text x="-109.833" y="696.445">U</text>
      <text x="-112.674" y="681.717">G</text>
      <text x="-115.516" y="666.989">A</text>
      <text x="-118.357" y="652.260">G</text>
      <text x="-121.199" y="637.532">A</text>
      <text x="-124.041" y="622.803">C</text>
      <text x="-126.882" y="608.075">C</text>
      <text x="-129.724" y="593.347">A</text>
      <text x="-132.565" y="578.618">G</text>
      <text x="-135.407" y="563.890">C</text>
      <text x="-130.424" y="548.874">C</text>
      <text x="-140.432" y="537.843">U</text>
      <text x="-143.273" y="523.114">G</text>
      <text x="-146.115" y="508.386">G</text>
      <text x="-148.956" y="493.657">G</text>
      <text x="-151.798" y="478.929">C</text>
      <text x="-154.639" y="464.201">A</text>
      <text x="-157.481" y="449.472">A</text>
      <text x="-160.322" y="434.744">C</text>
      <text x="-163.164" y="420.016">A</text>
      <text x="-166.005" y="405.287">U</text>
      <text x="-168.847" y="390.559">G</text>
      <text x="-160.259" y="377.563">A</text>
      <text x="-163.350" y="362.667">U</text>
      <text x="-175.792" y="354.560">G</text>
      <text x="-178.634" y="339.831">A</text>
      <text x="-173.651" y="324.815">A</text>
      <text x="-183.659" y="313.784">A</text>
      <text x="-186.500" y="299.056">C</text>
      <text x="-189.342" y="284.327">C</text>
      <text x="-192.183" y="269.599">C</text>
      <text x="-194.980" y="254.862">C</text>
      <text x="-197.730" y="240.116">G</text>
      <text x="-200.481" y="225.371">U</text>
      <text x="-203.232" y="210.625">C</text>
      <text x="-205.983" y="195.880">U</text>
      <text x="-204.486" y="192.030">C</text>
      <text x="-204.259" y="188.272">U</text>
      <text x="-205.127" y="184.979">A</text>
      <text x="-206.816" y="182.434">C</text>
      <text x="-208.987" y="180.807">A</text>
      <text x="-212.100" y="166.134">A</text>
      <text x="-215.213" y="151.460">A</text>
      <text x="-218.325" y="136.787">A</text>
      <text x="-221.438" y="122.113">A</text>
      <text x="-224.551" y="107.440">A</text>
      <text x="-217.363" y="120.605">U</text>
      <text x="-205.568" y="129.873">A</text>
      <text x="-191.077" y="133.744">C</text>
      <text x="-176.232" y="131.592">A</text>
      <text x="-163.436" y="123.764">A</text>
      <text x="-154.760" y="111.528">A</text>
      <text x="-151.607" y="96.863">A</text>
      <text x="-154.488" y="82.142">A</text>
      <text x="-162.936" y="69.748">U</text>
      <text x="-175.585" y="61.684">U</text>
      <text x="-190.387" y="59.258">A</text>
      <text x="-204.948" y="62.860">G</text>
      <text x="-216.912" y="71.908">C</text>
      <text x="-224.343" y="84.941">C</text>
      <text x="-220.960" y="70.327">A</text>
      <text x="-217.578" y="55.713">G</text>
      <text x="-214.195" y="41.100">G</text>
      <text x="-210.812" y="26.486">C</text>
      <text x="-200.162" y="14.786">C</text>
      <text x="-204.830" y="0.642">U</text>
      <text x="-201.447" y="-13.971">G</text>
      <text x="-187.908" y="-22.125">A</text>
      <text x="-184.182" y="-37.484">U</text>
      <text x="-192.478" y="-50.935">G</text>
      <text x="-207.875" y="-54.500">G</text>
      <text x="-221.238" y="-46.062">U</text>
      <text x="-224.639" y="-30.627">A</text>
      <text x="-216.061" y="-17.354">C</text>
      <text x="-219.443" y="-2.741">A</text>
      <text x="-229.852" y="7.914">U</text>
      <text x="-225.426" y="23.103">G</text>
      <text x="-228.808" y="37.717">C</text>
      <text x="-232.191" y="52.331">C</text>
      <text x="-235.574" y="66.944">U</text>
      <text x="-238.957" y="81.558">G</text>
      <text x="-246.403" y="82.455">U</text>
      <text x="-248.197" y="67.562">A</text>
      <text x="-249.991" y="52.670">G</text>
      <text x="-251.785" y="37.778">U</text>
      <text x="-266.677" y="39.572">C</text>
      <text x="-264.883" y="54.464">C</text>
      <text x="-263.089" y="69.356">C</text>
    </g>
  </g>
</svg>
